<?xml version="1.0" standalone="no"?>
<!DOCTYPE svg PUBLIC "-//W3C//DTD SVG 20010904//EN"
 "http://www.w3.org/TR/2001/REC-SVG-20010904/DTD/svg10.dtd">
<svg version="1.0" xmlns="http://www.w3.org/2000/svg"
 width="230.000000pt" height="230.000000pt" viewBox="0 0 230.000000 230.000000"
 preserveAspectRatio="xMidYMid meet">
<metadata>
Created by potrace 1.14, written by Peter Selinger 2001-2017
</metadata>
<g transform="translate(0.000000,230.000000) scale(0.100000,-0.100000)"
fill="#000000" stroke="none">
<path d="M0 1564 l0 -736 28 6 c15 3 47 7 72 10 l45 6 -50 -15 c-27 -8 -60
-15 -72 -15 -22 0 -23 -3 -23 -105 0 -58 4 -105 8 -105 5 0 22 11 38 25 15 13
42 27 58 31 17 4 68 24 114 46 45 22 85 38 87 36 3 -3 -19 -15 -48 -27 -28
-13 -81 -40 -117 -61 -36 -21 -82 -43 -103 -50 -36 -11 -37 -13 -37 -57 l0
-45 42 7 c35 6 41 5 30 -6 -19 -20 -14 -31 11 -23 22 7 22 7 3 -15 -17 -18
-17 -21 -3 -15 26 10 20 -12 -13 -46 -30 -31 -64 -44 -40 -15 15 18 7 30 -15
22 -13 -6 -15 -36 -15 -212 l0 -205 960 0 959 0 48 22 c27 13 49 26 51 31 2 4
17 7 33 7 16 0 29 3 29 8 0 11 73 41 120 48 22 4 40 10 40 15 0 5 -5 9 -11 9
-5 0 -8 4 -5 9 3 5 14 7 24 4 12 -3 24 4 35 20 13 20 16 60 17 234 l1 210 -33
11 -33 11 33 -5 32 -6 0 146 0 145 -53 4 -52 3 53 2 52 2 0 685 0 685 -1150 0
-1150 0 0 -736z m1221 146 c10 -6 19 -20 19 -30 0 -11 9 -29 20 -40 11 -11 20
-24 20 -29 0 -5 9 -13 20 -16 11 -3 20 -14 20 -24 0 -10 8 -26 19 -35 10 -10
21 -37 25 -64 8 -64 70 -161 103 -162 6 0 13 -6 15 -12 3 -7 18 -13 36 -14 17
-1 45 -12 62 -24 22 -16 39 -21 61 -16 20 4 29 2 29 -8 0 -7 15 -18 33 -24 30
-10 30 -10 -12 -5 -30 4 -42 3 -37 -5 3 -6 14 -11 24 -11 9 1 35 -2 57 -5 22
-2 46 -5 54 -5 11 -1 10 -5 -4 -15 -11 -8 -24 -12 -30 -11 -69 21 -89 8 -32
-21 17 -9 36 -23 40 -30 4 -8 14 -14 21 -14 8 0 48 -31 89 -70 l75 -70 112
-10 c62 -5 116 -12 119 -16 3 -3 -19 -3 -49 0 -30 3 -90 8 -134 11 -43 3 -84
8 -90 12 -13 8 13 -27 34 -45 40 -34 63 -44 140 -57 46 -8 86 -17 89 -21 3 -3
-14 -3 -39 2 -66 12 -123 11 -127 -3 -3 -7 13 -16 36 -23 23 -6 41 -12 41 -14
0 -2 -22 -1 -50 2 -46 4 -50 3 -50 -17 0 -11 5 -21 11 -21 5 0 8 -4 4 -9 -7
-12 42 -51 64 -51 9 0 25 -8 36 -17 l20 -16 -20 8 c-11 4 -27 8 -35 9 -8 1
-24 7 -35 13 -11 6 -36 14 -55 17 l-35 7 37 -20 c21 -10 55 -32 75 -49 21 -16
47 -34 58 -40 11 -6 15 -12 10 -12 -6 0 -44 20 -86 44 -75 44 -88 49 -122 47
-17 -1 -16 -4 7 -32 14 -17 26 -35 26 -40 0 -6 10 -8 23 -4 17 5 19 4 7 -4
-13 -9 -12 -13 8 -26 12 -9 19 -21 16 -27 -4 -7 -2 -8 5 -4 6 4 29 -8 53 -28
23 -20 45 -36 49 -36 4 0 9 -9 12 -21 3 -11 15 -23 26 -26 12 -3 21 -9 21 -13
0 -4 14 -10 30 -13 17 -4 36 -8 43 -11 6 -2 22 -7 35 -11 28 -9 29 -31 1 -38
-18 -5 -19 -8 -7 -26 17 -28 3 -37 -37 -22 -40 14 -55 9 -56 -22 0 -21 -1 -21
-9 -2 -7 17 -9 17 -9 3 -1 -11 -10 -19 -21 -20 -11 0 -26 -1 -32 -2 -7 -1 -18
-8 -25 -16 -6 -8 -20 -15 -30 -16 -10 -1 -29 -2 -41 -3 -15 0 -26 -9 -29 -22
-6 -20 -6 -20 -30 3 -18 17 -23 18 -17 5 5 -14 0 -17 -26 -17 -20 0 -38 -7
-46 -17 -7 -10 -14 -13 -14 -7 0 12 -174 14 -186 2 -4 -5 -11 -8 -16 -8 -13 0
-9 17 9 35 13 13 14 18 3 25 -16 10 -2 33 16 26 13 -5 18 10 17 51 0 8 7 9 25
2 16 -6 29 -6 35 0 5 5 16 7 23 4 8 -3 14 0 14 7 0 7 15 27 34 45 33 31 34 32
19 63 -9 18 -19 32 -24 32 -5 0 -9 5 -9 10 0 6 -16 34 -36 63 -46 65 -43 62
-51 54 -3 -4 2 -16 12 -27 21 -23 13 -39 -10 -20 -13 11 -18 10 -30 -6 -13
-18 -14 -18 -20 -2 -8 20 -40 24 -50 8 -10 -16 -35 8 -35 34 0 12 -7 31 -16
42 -15 18 -15 17 -10 -19 2 -20 3 -37 1 -37 -16 0 -55 26 -55 35 0 7 -17 16
-37 20 -21 4 -45 13 -53 20 -8 8 -26 15 -40 17 -38 6 -70 27 -70 45 0 13 -3
14 -12 5 -15 -15 -32 -16 -23 -2 3 6 -1 10 -9 10 -9 0 -16 5 -16 10 0 6 -7 10
-15 10 -8 0 -15 7 -15 16 0 8 -4 13 -9 9 -5 -3 -13 5 -16 17 -4 13 -15 32 -25
43 -28 32 -20 52 39 102 31 26 63 55 71 64 8 9 33 28 54 43 21 14 35 26 30 26
-5 0 -4 4 2 8 6 4 15 18 19 31 6 20 4 23 -9 18 -9 -4 -16 -3 -16 1 0 11 -61
35 -82 33 -12 -2 -16 3 -12 13 8 21 -6 20 -22 -1 -10 -14 -17 -16 -30 -7 -21
12 -30 34 -15 34 6 0 11 -7 11 -16 0 -8 4 -12 10 -9 13 8 -9 42 -32 48 -10 3
-16 2 -13 -2 2 -4 -41 -8 -95 -9 -102 0 -112 4 -90 38 9 13 11 13 19 0 14 -20
25 -6 12 17 -5 10 -12 26 -15 36 -8 24 -30 22 -23 -3 6 -25 -7 -34 -30 -21
-26 14 -46 -35 -26 -65 16 -26 2 -74 -22 -74 -8 0 -15 -2 -15 -5 0 -17 38 -59
69 -76 20 -10 46 -32 58 -47 12 -15 41 -48 63 -73 41 -47 51 -85 26 -95 -8 -3
-16 -17 -19 -32 -6 -28 -39 -52 -139 -99 -43 -20 -48 -20 -48 -5 0 13 -3 12
-16 -6 -10 -14 -26 -22 -44 -22 -16 0 -35 -7 -44 -15 -8 -8 -21 -15 -29 -15
-8 0 -20 -7 -27 -15 -16 -19 -40 -19 -40 -1 0 8 -5 16 -11 18 -9 3 -9 10 0 27
14 26 7 41 -11 23 -16 -16 -28 -15 -28 3 0 13 -3 13 -25 -1 -14 -9 -37 -18
-51 -20 -20 -2 -24 1 -19 17 7 22 -7 25 -27 6 -7 -8 -27 -17 -43 -20 -27 -7
-28 -6 -13 6 10 8 18 17 18 21 0 11 -59 -31 -102 -73 -21 -19 -38 -31 -38 -27
0 5 19 26 43 48 32 30 37 37 20 33 -17 -5 -23 -2 -23 9 0 22 -14 26 -41 12
-20 -10 -27 -10 -37 0 -15 16 5 33 50 44 18 4 50 15 70 24 22 9 38 12 38 6 0
-21 49 -10 110 25 l25 15 -27 0 c-15 0 -30 -4 -33 -10 -9 -14 -45 -12 -42 3 1
7 -7 11 -18 10 -76 -8 -236 -9 -241 -2 -3 5 2 9 11 9 8 0 23 4 33 9 9 5 35 16
57 26 36 16 38 18 19 25 -12 5 -53 2 -95 -6 -85 -16 -115 -17 -80 -3 14 5 90
19 170 30 152 22 199 38 121 41 -25 1 -56 1 -70 0 -37 -3 -90 8 -90 18 0 6 8
10 18 10 10 0 32 13 50 30 18 16 42 30 53 30 13 0 18 4 13 12 -5 8 0 9 14 6
12 -4 22 -2 22 2 0 5 -14 10 -32 12 -39 4 -51 28 -14 28 27 0 33 9 17 25 -6 6
2 11 21 12 19 2 44 14 62 32 61 58 72 67 110 86 21 11 47 24 57 30 11 5 17 15
15 22 -3 8 4 9 26 2 17 -4 35 -7 41 -6 17 3 76 58 82 76 8 25 44 44 59 32 14
-12 26 -5 26 16 0 7 -7 13 -15 13 -8 0 -15 7 -15 16 0 13 3 14 13 5 21 -17 80
-8 99 14 10 11 20 35 24 53 5 25 11 32 29 32 25 0 35 17 35 57 0 16 7 27 20
30 11 3 20 12 20 20 0 16 28 73 36 73 3 0 14 -5 25 -10z m564 -220 c3 -5 1
-10 -4 -10 -6 0 -11 5 -11 10 0 6 2 10 4 10 3 0 8 -4 11 -10z m-1388 -406 c-3
-3 -12 -4 -19 -1 -8 3 -5 6 6 6 11 1 17 -2 13 -5z m-74 -81 c-7 -2 -21 -2 -30
0 -10 3 -4 5 12 5 17 0 24 -2 18 -5z m-140 -10 c-7 -2 -19 -2 -25 0 -7 3 -2 5
12 5 14 0 19 -2 13 -5z m1944 -129 c-3 -3 -12 -4 -19 -1 -8 3 -5 6 6 6 11 1
17 -2 13 -5z m80 -50 c-3 -3 -12 -4 -19 -1 -8 3 -5 6 6 6 11 1 17 -2 13 -5z
m77 -25 c5 -5 -5 -4 -24 1 -18 5 -35 12 -39 16 -9 9 53 -7 63 -17z m-2101 4
c-7 -2 -19 -2 -25 0 -7 3 -2 5 12 5 14 0 19 -2 13 -5z m2104 -89 c-3 -3 -12
-4 -19 -1 -8 3 -5 6 6 6 11 1 17 -2 13 -5z m-1999 -46 c-39 -37 -196 -133
-204 -125 -3 3 16 19 43 36 138 89 195 120 161 89z m111 -70 c-26 -29 -50 -50
-53 -47 -6 5 82 99 93 99 4 0 -14 -23 -40 -52z m180 3 c-19 -35 -39 -53 -39
-36 0 8 23 48 39 68 24 29 24 10 0 -32z m54 24 c-3 -9 -8 -14 -10 -11 -3 3 -2
9 2 15 9 16 15 13 8 -4z m37 -35 c-18 -12 -43 -13 -37 -2 2 4 7 16 11 26 6 18
8 19 24 2 15 -15 15 -18 2 -26z m433 0 c9 -11 17 -25 17 -31 0 -6 7 -9 15 -5
8 3 15 1 15 -4 0 -6 -7 -10 -15 -10 -8 0 -15 -7 -15 -15 0 -17 16 -20 25 -5 3
6 17 10 31 10 21 0 24 -4 24 -40 0 -47 -7 -49 -46 -15 -49 43 -54 46 -64 40
-6 -3 -10 -15 -10 -26 0 -31 -30 -23 -31 9 l-1 27 -10 -27 c-5 -16 -16 -28
-24 -28 -16 0 -19 16 -4 25 6 3 10 16 10 29 0 15 9 27 25 34 15 7 25 20 25 32
0 25 11 25 33 0z m-621 -12 c-7 -7 -12 -8 -12 -2 0 6 3 14 7 17 3 4 9 5 12 2
2 -3 -1 -11 -7 -17z m519 -55 c-8 -15 -10 -15 -11 -2 0 17 10 32 18 25 2 -3
-1 -13 -7 -23z m1100 10 c13 -15 12 -15 -11 -3 -34 17 -36 20 -18 20 9 0 22
-7 29 -17z m-1839 -23 c-12 -12 -22 -18 -22 -14 0 10 34 42 39 38 3 -2 -5 -13
-17 -24z m1018 0 c0 -5 -4 -10 -10 -10 -5 0 -10 5 -10 10 0 6 5 10 10 10 6 0
10 -4 10 -10z m-440 -20 c0 -11 -4 -20 -10 -20 -5 0 -10 9 -10 20 0 11 5 20
10 20 6 0 10 -9 10 -20z m-550 1 c0 -5 -7 -12 -16 -15 -14 -5 -15 -4 -4 9 14
17 20 19 20 6z m-155 -11 c3 -5 1 -10 -4 -10 -6 0 -11 5 -11 10 0 6 2 10 4 10
3 0 8 -4 11 -10z m1120 0 c3 -5 -1 -10 -10 -10 -9 0 -13 5 -10 10 3 6 8 10 10
10 2 0 7 -4 10 -10z m-1019 -49 c-9 -17 -21 -31 -27 -31 -6 0 -8 -4 -5 -8 3
-5 -9 -22 -26 -38 -22 -21 -29 -24 -25 -11 4 10 7 22 7 26 0 4 9 17 21 30 12
12 18 25 15 28 -3 4 -16 -6 -29 -20 -12 -15 -29 -27 -37 -26 -11 0 -11 2 -2 6
6 2 12 11 12 18 0 18 53 52 58 37 2 -7 10 -12 17 -12 16 0 28 27 19 43 -5 9
-4 9 5 1 10 -9 9 -18 -3 -43z m-129 -33 c-3 -8 -6 -5 -6 6 -1 11 2 17 5 13 3
-3 4 -12 1 -19z m982 -44 c3 -16 1 -17 -13 -5 -19 16 -21 34 -3 29 6 -3 14
-13 16 -24z m-49 0 c0 -8 -5 -12 -10 -9 -6 4 -8 11 -5 16 9 14 15 11 15 -7z
m-633 -86 c-3 -8 -6 -5 -6 6 -1 11 2 17 5 13 3 -3 4 -12 1 -19z"/>
<path d="M930 1280 c0 -5 4 -10 9 -10 6 0 13 5 16 10 3 6 -1 10 -9 10 -9 0
-16 -4 -16 -10z"/>
<path d="M544 939 c-3 -5 -2 -9 3 -9 4 0 18 -3 31 -6 12 -4 22 -2 22 4 0 13
-49 22 -56 11z"/>
<path d="M655 940 c3 -5 1 -10 -6 -10 -10 0 -10 -3 -2 -11 6 -6 16 -8 22 -5
12 8 4 36 -11 36 -5 0 -6 -4 -3 -10z"/>
<path d="M1505 910 c3 -5 13 -10 21 -10 8 0 14 5 14 10 0 6 -9 10 -21 10 -11
0 -17 -4 -14 -10z"/>
<path d="M1445 890 c3 -5 10 -10 16 -10 5 0 9 5 9 10 0 6 -7 10 -16 10 -8 0
-12 -4 -9 -10z"/>
<path d="M1980 840 c0 -5 5 -10 10 -10 6 0 10 5 10 10 0 6 -4 10 -10 10 -5 0
-10 -4 -10 -10z"/>
<path d="M1030 826 c0 -9 5 -16 10 -16 6 0 10 4 10 9 0 6 -4 13 -10 16 -5 3
-10 -1 -10 -9z"/>
<path d="M625 820 c-11 -5 -14 -9 -7 -9 7 -1 10 -6 7 -12 -5 -7 3 -9 21 -7 18
2 29 9 29 18 0 18 -22 22 -50 10z"/>
<path d="M960 820 c0 -5 7 -10 15 -10 8 0 15 5 15 10 0 6 -7 10 -15 10 -8 0
-15 -4 -15 -10z"/>
<path d="M1919 814 c18 -8 36 -13 39 -10 6 6 -43 26 -61 25 -7 0 3 -7 22 -15z"/>
<path d="M733 808 c2 -7 14 -12 27 -10 16 1 21 -2 16 -13 -6 -16 3 -19 28 -9
22 9 20 24 -3 24 -11 0 -23 5 -26 10 -9 15 -48 12 -42 -2z"/>
<path d="M860 801 c0 -5 11 -8 25 -8 14 0 25 3 25 8 0 5 -11 9 -25 9 -14 0
-25 -4 -25 -9z"/>
<path d="M1455 774 c-17 -13 -18 -16 -5 -24 8 -6 29 -7 45 -3 17 4 47 6 69 5
31 -1 36 1 27 12 -6 7 -32 14 -57 14 -24 1 -48 3 -52 6 -4 2 -16 -2 -27 -10z"/>
<path d="M1608 773 c6 -2 18 -2 25 0 6 3 1 5 -13 5 -14 0 -19 -2 -12 -5z"/>
<path d="M955 750 c-3 -5 1 -10 9 -10 9 0 16 5 16 10 0 6 -4 10 -9 10 -6 0
-13 -4 -16 -10z"/>
<path d="M792 718 c-17 -21 12 -48 30 -30 9 9 9 12 1 12 -6 0 -13 7 -15 17 -3
14 -4 14 -16 1z"/>
<path d="M855 720 c-3 -6 1 -7 9 -4 18 7 21 14 7 14 -6 0 -13 -4 -16 -10z"/>
<path d="M705 680 c-4 -7 -1 -16 6 -21 23 -14 32 -10 18 9 -7 9 -14 18 -15 20
-1 2 -5 -2 -9 -8z"/>
<path d="M1440 660 c0 -5 5 -10 10 -10 6 0 10 5 10 10 0 6 -4 10 -10 10 -5 0
-10 -4 -10 -10z"/>
<path d="M1513 650 c-8 -12 -9 -21 -3 -25 6 -3 10 1 10 9 0 9 5 16 10 16 6 0
10 5 10 10 0 16 -14 11 -27 -10z"/>
<path d="M1550 660 c0 -5 7 -10 15 -10 8 0 15 5 15 10 0 6 -7 10 -15 10 -8 0
-15 -4 -15 -10z"/>
<path d="M1600 653 c0 -13 29 -38 35 -31 3 3 -4 13 -15 23 -11 10 -20 13 -20
8z"/>
<path d="M1592 605 c12 -26 64 -38 55 -12 -2 6 -14 12 -26 11 -11 0 -21 5 -21
13 0 7 -4 13 -10 13 -6 0 -5 -10 2 -25z"/>
<path d="M1839 583 c14 -28 14 -33 -1 -29 -7 1 -10 1 -5 -1 15 -9 6 -21 -12
-16 -36 9 -33 -18 8 -72 45 -59 66 -70 59 -31 -4 22 -2 23 18 16 28 -11 38 -2
19 17 -18 17 -20 37 -4 27 7 -4 10 -1 7 7 -3 8 -13 14 -24 14 -25 0 -61 21
-52 31 4 4 14 1 23 -6 9 -7 18 -10 22 -6 3 3 4 7 2 9 -2 1 -19 16 -38 32 -28
25 -32 26 -22 8z"/>
<path d="M1895 571 c11 -13 29 -28 40 -33 20 -11 20 -11 0 11 -11 13 -29 28
-40 33 -20 11 -20 11 0 -11z"/>
<path d="M2068 432 c-24 -5 -23 -24 1 -39 14 -9 23 -9 35 0 15 11 15 13 -1 27
-10 9 -26 14 -35 12z"/>
</g>
</svg>
